<svg xmlns="http://www.w3.org/2000/svg" width="19.309" height="12.91" viewBox="0 0 19.309 12.91"><defs><style>.a{fill:#5596e6;}</style></defs><path class="a" d="M.88,12.91A.881.881,0,0,1,0,12.03V.88A.881.881,0,0,1,.88,0H17.9a.882.882,0,0,1,.881.88V12.03a.882.882,0,0,1-.881.88Zm.294-1.174H17.6V4.694H1.174ZM17.6,3.521V1.174H1.174V3.521Z"/><path class="a" d="M0,1.174V0H3.832V1.174Z" transform="translate(2.012 12.91) rotate(-90)"/><path class="a" d="M0,1.174V0H6.607V1.174Z" transform="translate(3.8 12.91) rotate(-90)"/><path class="a" d="M0,1.174V0H5.5V1.174Z" transform="translate(5.589 12.91) rotate(-90)"/><path class="a" d="M0,1.174V0H4.6L4.42,1.184Z" transform="matrix(0.695, -0.719, 0.719, 0.695, 8.314, 11.73)"/><path class="a" d="M.006,2.13,0,.946,3.214,0l.652,1.032Z" transform="translate(11.883 12.434) rotate(-110)"/><path class="a" d="M0,1.174V0H6.818V1.174Z" transform="matrix(0.53, -0.848, 0.848, 0.53, 12.293, 12.071)"/><path class="a" d="M1.142,2.559,0,1.682,3.558,0l.571,1.206Z" transform="matrix(-0.545, -0.839, 0.839, -0.545, 17.162, 10.401)"/></svg>