<svg xmlns="http://www.w3.org/2000/svg" width="21.594" height="14.438" viewBox="0 0 21.594 14.438"><defs><style>.a{fill:#fff;}</style></defs><path class="a" d="M.984,14.437A.986.986,0,0,1,0,13.453V.984A.986.986,0,0,1,.984,0H20.015A.986.986,0,0,1,21,.984V13.453a.986.986,0,0,1-.985.984Zm.328-1.312H19.688V5.249H1.312ZM19.688,3.937V1.312H1.312V3.937Z"/><path class="a" d="M0,1.312V0H4.285V1.312Z" transform="translate(2.25 14.438) rotate(-90)"/><path class="a" d="M0,1.312V0H7.389V1.312Z" transform="translate(4.25 14.438) rotate(-90)"/><path class="a" d="M0,1.312V0H6.152V1.312Z" transform="translate(6.25 14.438) rotate(-90)"/><path class="a" d="M0,1.312V0H5.149L4.943,1.324Z" transform="matrix(0.695, -0.719, 0.719, 0.695, 9.297, 13.118)"/><path class="a" d="M.377,2.382.37,1.058,3.964,0l.729,1.154Z" transform="matrix(-0.342, -0.94, 0.94, -0.342, 13.416, 14.253)"/><path class="a" d="M0,1.312V0H7.625V1.312Z" transform="matrix(0.53, -0.848, 0.848, 0.53, 13.747, 13.499)"/><path class="a" d="M4.853,2.014,3.576,1.033,7.554-.848,8.192.5Z" transform="translate(21.851 14.169) rotate(-123)"/></svg>