<?xml version="1.0" encoding="UTF-8"?>
<svg width="82px" height="108px" viewBox="0 0 82 108" version="1.1" xmlns="http://www.w3.org/2000/svg" xmlns:xlink="http://www.w3.org/1999/xlink">
    <defs>
        <linearGradient x1="0%" y1="21.348541%" x2="100%" y2="100%" id="linearGradient-1">
            <stop stop-color="#8B45CB" offset="0%"></stop>
            <stop stop-color="#E957AD" offset="100%"></stop>
        </linearGradient>
    </defs>
    <g id="Design" stroke="none" stroke-width="1" fill="none" fill-rule="evenodd">
        <g id="Set-new-password" transform="translate(-561.000000, -77.000000)" stroke="url(#linearGradient-1)">
            <g id="Login/header">
                <g id="Logo_text" transform="translate(561.000000, 77.000000)">
                    <g id="logo">
                        <g id="Logo-symbol">
                            <g>
                                <path d="M40.0851975,20.7682292 C40.0851975,22.4296875 43.0285162,23.6757812 46.392309,23.6757812 C49.7561018,23.6757812 52.5592625,22.2912326 52.5592625,20.7682292" id="XMLID_120_" stroke-width="0.5"></path>
                                <path d="M40.6458297,76.9809028 C40.6458297,83.4882813 50.0364179,88.8880208 61.1089025,88.8880208 C72.0412291,88.8880208 81.0113433,83.6267361 81.0113433,76.9809028" id="XMLID_119_" stroke-width="0.5"></path>
                                <path d="M35.8804565,60.0894097 C35.8804565,66.1814236 47.2332572,71.0273437 57.8852678,71.0273437 C68.5372783,71.0273437 77.0869183,66.0429687 77.0869183,60.0894097 C77.0869183,58.4279514 76.5262862,56.7664931 75.4050219,55.3819444" id="XMLID_118_" stroke-width="0.5"></path>
                                <path d="M35.3198244,52.6128472 C35.3198244,58.1510417 44.1497805,62.7200521 53.6805268,62.7200521 C63.211273,62.7200521 70.7798068,58.1510417 70.7798068,52.6128472 C70.7798068,50.6744792 69.9388586,48.874566 68.3971203,47.0746528" id="XMLID_117_" stroke-width="0.5"></path>
                                <path d="M35.0395083,46.1054687 C35.0395083,51.0898437 41.6269359,55.1050347 49.8962599,55.1050347 C58.1655838,55.1050347 64.7530114,51.0898437 64.7530114,46.1054687 C64.7530114,44.4440104 64.0522212,42.9210069 62.7907989,41.3980035" id="XMLID_116_" stroke-width="0.5"></path>
                                <path d="M35.3198244,40.2903646 C35.3198244,44.5824653 40.6458297,48.0438368 47.6537313,48.0438368 C54.661633,48.0438368 60.4081124,44.5824653 60.4081124,40.2903646 C60.4081124,39.1827257 59.9876383,38.0750868 59.4270061,37.1059028" id="XMLID_115_" stroke-width="0.5"></path>
                                <path d="M35.7402985,35.0290799 C35.7402985,38.7673611 40.2253556,41.8133681 46.252151,41.8133681 C52.2789464,41.8133681 57.0443196,38.7673611 57.0443196,35.0290799 C57.0443196,34.1983507 56.9041615,33.5060764 56.4836874,32.8138021" id="XMLID_114_" stroke-width="0.5"></path>
                                <path d="M36.7214047,30.1831597 C36.7214047,33.2291667 40.6458297,35.7213542 45.6915189,35.7213542 C50.7372081,35.7213542 54.801791,33.2291667 54.801791,30.1831597 C54.801791,29.6293403 54.661633,29.2139757 54.521475,28.7986111" id="XMLID_113_" stroke-width="0.5"></path>
                                <path d="M38.1229851,25.3372396 C38.1229851,27.8294271 41.4867779,29.7677951 45.6915189,29.7677951 C49.8962599,29.7677951 53.2600527,27.8294271 53.2600527,25.3372396" id="XMLID_112_" stroke-width="0.5"></path>
                                <path d="M43.0285162,15.3684896 C43.0285162,16.7530382 45.8316769,17.8606771 48.3545215,17.8606771 C50.8773661,17.8606771 52.9797366,16.7530382 52.9797366,15.3684896" id="XMLID_111_" stroke-width="0.5"></path>
                                <path d="M46.8127831,10.3841146 C46.8127831,11.4841146 48.7749956,12.3091146 50.59705,12.3091146 C52.4191045,12.3091146 53.8206848,11.4841146 53.8206848,10.3841146" id="XMLID_110_" stroke-width="0.5"></path>
                                <path d="M50.59705,5.95355903 C50.59705,6.64105903 51.9986304,7.19105903 52.9797366,7.19105903 C54.1010009,7.19105903 54.9419491,6.64105903 54.9419491,5.95355903" id="XMLID_109_" stroke-width="0.5"></path>
                                <path d="M37.5623529,67.9813368 C37.5623529,74.4887153 49.0553117,79.8884549 60.1277963,79.8884549 C71.2002809,79.8884549 80.1703951,74.6271701 80.1703951,67.9813368 C80.1703951,67.2890625 80.0302371,66.4583333 79.890079,65.766059" id="XMLID_108_" stroke-width="0.5"></path>
                                <path d="M30.510797,20.3528646 C29.4110955,21.3220486 28.7237821,22.4296875 28.4488567,23.5373264 C28.1739314,24.5065104 28.1739314,25.7526042 28.9987075,26.5833333" id="XMLID_107_" stroke-width="0.5"></path>
                                <path d="M2.80316067,96.0876736 C3.08347673,97.1953125 3.50395083,98.1644965 4.06458297,98.9952257 C4.06458297,98.9952257 6.7275856,103.841146 11.2126427,107.302517" id="XMLID_106_" stroke-width="0.5"></path>
                                <path d="M1.54173837,70.8888889 C0.700790167,74.765625 1.12126427,77.9500868 2.80316067,80.719184 C2.80316067,80.719184 4.34489903,82.9344618 6.02679543,84.3190104" id="XMLID_105_" stroke-width="0.5"></path>
                                <path d="M3.3637928,62.4431424 C2.5228446,66.0429688 2.9433187,69.0889757 4.48505707,71.4427083 L6.02679543,73.3810764" id="XMLID_104_" stroke-width="0.5"></path>
                                <path d="M8.37388134,49.5668403 C7.54595089,51.2282986 6.85600885,53.0282118 6.44204363,54.828125 C5.75210158,58.0125868 6.16606681,60.781684 7.40796248,62.8585069" id="XMLID_103_" stroke-width="0.5"></path>
                                <path d="M12.474065,42.5056424 C11.4929587,44.1671007 10.6520105,46.1054688 10.2315364,48.0438368 C9.6709043,50.812934 9.95122037,53.1666667 11.0724846,54.9665799" id="XMLID_102_" stroke-width="0.5"></path>
                                <path d="M17.5197542,35.3059896 C15.9780158,37.2443576 14.9969096,39.4596354 14.5764355,41.6749132 C14.0158033,44.0286458 14.2961194,46.1054688 15.2772256,47.6284722" id="XMLID_101_" stroke-width="0.5"></path>
                                <path d="M21.8646532,29.7677951 C20.3229148,31.5677083 19.3418086,33.5060764 18.9213345,35.5828993 C18.5008604,37.5212674 18.7811765,39.1827257 19.4819666,40.5672743" id="XMLID_100_" stroke-width="0.5"></path>
                                <path d="M26.0693942,24.7834201 C24.8079719,26.1679687 23.8268657,27.8294271 23.4063916,29.6293403 C23.1260755,31.1523437 23.2662335,32.5368924 23.8268657,33.6445312" id="XMLID_99_" stroke-width="0.5"></path>
                                <path d="M36.818328,14.6762153 C35.7186265,15.5069444 35.0313131,16.6145833 34.7563877,17.8606771 C34.4814623,18.6914063 34.618925,19.5221354 35.0313131,20.0759549" id="XMLID_98_" stroke-width="0.5"></path>
                                <path d="M43.129823,9.27647569 C42.1675842,10.1072049 41.342808,11.0763889 41.2053454,12.3224826 C41.0678827,13.0147569 41.2053454,13.5685764 41.342808,14.1223958" id="XMLID_97_" stroke-width="0.5"></path>
                                <path d="M49.0245464,4.984375 C48.1997703,5.53819444 47.6499195,6.23046875 47.5124569,7.06119792 C47.3749942,7.4765625 47.5124569,7.89192708 47.6499195,8.16883681" id="XMLID_96_" stroke-width="0.5"></path>
                                <path d="M0.8409482,84.1805556 C0.981106234,86.3958333 1.54173837,88.3342014 2.5228446,90.1341146 C2.5228446,90.1341146 4.6252151,93.0416667 7.70869183,95.5338542" id="XMLID_95_" stroke-width="0.5"></path>
                                <path d="M4.34489903,100.656684 C4.34489903,100.656684 -6.7275856,75.5963542 10.3716945,46.2439236 C27.4709745,16.8914931 53.1198946,2.4921875 55.6427392,0.692274306" id="XMLID_94_" stroke-width="0.5"></path>
                                <path d="M40.0851975,20.7682292 C40.0851975,22.4296875 43.0285162,23.6757813 46.392309,23.6757813 C49.7561018,23.6757813 52.5592625,22.2912326 52.5592625,20.7682292 C52.5592625,18.5529514 47.5135733,16.7530382 41.4867779,16.7530382 C37.1418788,16.7530382 33.0772959,18.2760417 30.5544513,20.4913194 C29.433187,21.4605035 28.7323968,22.5681424 28.4520808,23.6757813 C28.1717647,24.6449653 28.1717647,25.891059 29.0127129,26.7217882" id="XMLID_93_" stroke-width="0.5"></path>
                                <path d="M40.6458297,76.9809028 C40.6458297,83.4882813 50.0364179,88.8880208 61.1089025,88.8880208 C72.0412291,88.8880208 81.0113433,83.6267361 81.0113433,76.9809028 C81.0113433,67.9813368 64.8931694,60.5047743 44.9907287,60.5047743 C25.088288,60.5047743 6.16695347,72.9657118 2.80316067,88.4726563 C2.1023705,91.2417535 2.24252853,93.8723958 2.80316067,96.0876736 C3.08347673,97.1953125 3.50395083,98.1644965 4.06458297,98.9952257 C4.06458297,98.9952257 6.7275856,103.841146 11.2126427,107.302517" id="XMLID_92_" stroke-width="0.5"></path>
                                <path d="M35.8804565,60.0894097 C35.8804565,66.1814236 47.2332572,71.0273438 57.8852678,71.0273438 C68.5372783,71.0273438 77.0869183,66.0429688 77.0869183,60.0894097 C77.0869183,51.6436632 61.5293766,44.859375 42.3277261,44.859375 C23.1260755,44.859375 4.90553117,56.4895833 1.54173837,70.750434 C0.700790167,74.765625 1.12126427,77.9500868 2.80316067,80.719184 C2.80316067,80.719184 4.34489903,82.9344618 6.02679543,84.3190104" id="XMLID_91_" stroke-width="0.5"></path>
                                <path d="M35.3198244,52.6128472 C35.3198244,58.1510417 44.1497805,62.7200521 53.6805268,62.7200521 C63.211273,62.7200521 70.7798068,58.1510417 70.7798068,52.6128472 C70.7798068,44.859375 56.9041615,38.6289063 39.6647234,38.6289063 C22.5654434,38.6289063 6.16695347,49.2899306 3.22363477,62.5815972 C2.38268657,66.1814236 2.80316067,69.2274306 4.34489903,71.5811632 L5.8866374,73.5195313" id="XMLID_90_" stroke-width="0.5"></path>
                                <path d="M35.0395083,46.1054688 C35.0395083,51.0898438 41.6269359,55.1050347 49.8962599,55.1050347 C58.1655838,55.1050347 64.7530114,51.0898438 64.7530114,46.1054688 C64.7530114,39.1827257 52.6994205,33.6445313 37.982827,33.6445313 C25.5087621,33.6445313 13.4551712,40.4288194 8.54964004,49.7052951 C7.70869183,51.3667535 7.00790167,53.1666667 6.58742757,54.9665799 C5.8866374,58.1510417 6.3071115,60.9201389 7.5685338,62.9969618" id="XMLID_89_" stroke-width="0.5"></path>
                                <path d="M35.3198244,40.2903646 C35.3198244,44.5824653 40.6458297,48.0438368 47.6537313,48.0438368 C54.661633,48.0438368 60.4081124,44.5824653 60.4081124,40.2903646 C60.4081124,34.3368056 50.0364179,29.4908854 37.2820369,29.4908854 C26.9103424,29.4908854 16.959122,34.890625 12.474065,42.3671875 C11.4929587,44.0286458 10.6520105,45.9670139 10.2315364,47.9053819 C9.6709043,50.6744792 9.95122037,53.0282118 11.0724846,54.828125" id="XMLID_88_" stroke-width="0.5"></path>
                                <path d="M35.7402985,35.0290799 C35.7402985,38.7673611 40.2253556,41.8133681 46.252151,41.8133681 C52.2789464,41.8133681 57.0443196,38.7673611 57.0443196,35.0290799 C57.0443196,29.90625 48.3545215,25.7526042 37.4221949,25.7526042 C29.433187,25.7526042 21.7244952,29.6293403 17.5197542,35.1675347 C15.9780158,37.1059028 14.9969096,39.3211806 14.5764355,41.5364583 C14.0158033,43.890191 14.2961194,45.9670139 15.2772256,47.4900174" id="XMLID_87_" stroke-width="0.5"></path>
                                <path d="M36.7214047,30.1831597 C36.7214047,33.2291667 40.6458297,35.7213542 45.6915189,35.7213542 C50.7372081,35.7213542 54.801791,33.2291667 54.801791,30.1831597 C54.801791,25.891059 47.3734153,22.5681424 38.2631431,22.5681424 C31.8158736,22.5681424 25.5087621,25.4756944 21.8646532,29.7677951 C20.3229148,31.5677083 19.3418086,33.5060764 18.9213345,35.5828993 C18.5008604,37.5212674 18.7811765,39.1827257 19.4819666,40.5672743" id="XMLID_86_" stroke-width="0.5"></path>
                                <path d="M38.1229851,25.3372396 C38.1229851,27.8294271 41.4867779,29.7677951 45.6915189,29.7677951 C49.8962599,29.7677951 53.2600527,27.8294271 53.2600527,25.3372396 C53.2600527,22.0143229 47.0930992,19.2452257 39.5245654,19.2452257 C34.1985601,19.2452257 29.1528709,21.4605035 26.0693942,24.7834201 C24.8079719,26.1679688 23.8268657,27.8294271 23.4063916,29.6293403 C23.1260755,31.1523438 23.2662335,32.5368924 23.8268657,33.6445313" id="XMLID_85_" stroke-width="0.5"></path>
                                <path d="M43.0285162,15.3684896 C43.0285162,16.7530382 45.8316769,17.8606771 48.3545215,17.8606771 C50.8773661,17.8606771 52.9797366,16.7530382 52.9797366,15.3684896 C52.9797366,13.4301215 49.1954697,11.7686632 44.5702546,11.7686632 C41.6269359,11.7686632 38.6836172,12.8763021 36.7214047,14.5377604 C35.7402985,15.5069444 35.0395083,16.6145833 34.7591923,17.8606771 C34.4788762,18.6914062 34.6190342,19.5221354 35.0395083,20.0759549" id="XMLID_84_" stroke-width="0.5"></path>
                                <path d="M46.8127831,10.3841146 C46.8127831,11.4917535 48.7749956,12.3224826 50.59705,12.3224826 C52.4191045,12.3224826 53.8206848,11.4917535 53.8206848,10.3841146 C53.8206848,8.86111111 51.1576822,7.61501736 47.9340474,7.61501736 C46.111993,7.61501736 44.2899385,8.30729167 43.0285162,9.27647569 C42.04741,10.1072049 41.2064618,11.0763889 41.0663038,12.3224826" id="XMLID_83_" stroke-width="0.5"></path>
                                <path d="M50.59705,5.95355903 C50.59705,6.64583333 51.9986304,7.19965278 52.9797366,7.19965278 C54.1010009,7.19965278 54.9419491,6.64583333 54.9419491,5.95355903 C54.9419491,4.984375 53.4002107,4.29210069 51.4379982,4.29210069 C50.456892,4.29210069 49.6159438,4.56901042 48.9151536,5.12282986 C48.2143635,5.53819444 47.6537313,6.23046875 47.5135733,7.06119792 C47.3734153,7.4765625 47.5135733,7.89192708 47.6537313,8.16883681" id="XMLID_82_" stroke-width="0.5"></path>
                                <path d="M37.5623529,67.9813368 C37.5623529,74.4887153 49.0553117,79.8884549 60.1277963,79.8884549 C71.2002809,79.8884549 80.1703951,74.6271701 80.1703951,67.9813368 C80.1703951,58.9817708 63.9120632,51.5052083 43.8694644,51.5052083 C23.8268657,51.5052083 4.76537313,63.9661458 1.2614223,79.4730903 C0.8409482,81.1345486 0.700790167,82.6575521 0.8409482,84.1805556 C0.981106234,86.3958333 1.54173837,88.3342014 2.5228446,90.1341146 C2.5228446,90.1341146 4.6252151,93.0416667 7.70869183,95.5338542" id="XMLID_81_" stroke-width="0.5"></path>
                                <path d="M40.0851975,20.7682292 C40.0851975,22.4296875 43.0285162,23.6757812 46.392309,23.6757812 C49.7561018,23.6757812 52.5592625,22.2912326 52.5592625,20.7682292" id="XMLID_79_" stroke-width="0.5"></path>
                                <path d="M40.6458297,76.9809028 C40.6458297,83.4882813 50.0364179,88.8880208 61.1089025,88.8880208 C72.0412291,88.8880208 81.0113433,83.6267361 81.0113433,76.9809028" id="XMLID_78_" stroke-width="0.5"></path>
                                <path d="M35.8804565,60.0894097 C35.8804565,66.1814236 47.2332572,71.0273437 57.8852678,71.0273437 C68.5372783,71.0273437 77.0869183,66.0429687 77.0869183,60.0894097 C77.0869183,58.4279514 76.5262862,56.7664931 75.4050219,55.3819444" id="XMLID_77_" stroke-width="0.5"></path>
                                <path d="M35.3198244,52.6128472 C35.3198244,58.1510417 44.1497805,62.7200521 53.6805268,62.7200521 C63.211273,62.7200521 70.7798068,58.1510417 70.7798068,52.6128472 C70.7798068,50.6744792 69.9388586,48.874566 68.3971203,47.0746528" id="XMLID_76_" stroke-width="0.5"></path>
                                <path d="M35.0395083,46.1054687 C35.0395083,51.0898437 41.6269359,55.1050347 49.8962599,55.1050347 C58.1655838,55.1050347 64.7530114,51.0898437 64.7530114,46.1054687 C64.7530114,44.4440104 64.0522212,42.9210069 62.7907989,41.3980035" id="XMLID_75_" stroke-width="0.5"></path>
                                <path d="M35.3198244,40.2903646 C35.3198244,44.5824653 40.6458297,48.0438368 47.6537313,48.0438368 C54.661633,48.0438368 60.4081124,44.5824653 60.4081124,40.2903646 C60.4081124,39.1827257 59.9876383,38.0750868 59.4270061,37.1059028" id="XMLID_74_" stroke-width="0.5"></path>
                                <path d="M35.7402985,35.0290799 C35.7402985,38.7673611 40.2253556,41.8133681 46.252151,41.8133681 C52.2789464,41.8133681 57.0443196,38.7673611 57.0443196,35.0290799 C57.0443196,34.1983507 56.9041615,33.5060764 56.4836874,32.8138021" id="XMLID_73_" stroke-width="0.5"></path>
                                <path d="M36.7214047,30.1831597 C36.7214047,33.2291667 40.6458297,35.7213542 45.6915189,35.7213542 C50.7372081,35.7213542 54.801791,33.2291667 54.801791,30.1831597 C54.801791,29.6293403 54.661633,29.2139757 54.521475,28.7986111" id="XMLID_72_" stroke-width="0.5"></path>
                                <path d="M38.1229851,25.3372396 C38.1229851,27.8294271 41.4867779,29.7677951 45.6915189,29.7677951 C49.8962599,29.7677951 53.2600527,27.8294271 53.2600527,25.3372396" id="XMLID_71_" stroke-width="0.5"></path>
                                <path d="M43.0285162,15.3684896 C43.0285162,16.7530382 45.8316769,17.8606771 48.3545215,17.8606771 C50.8773661,17.8606771 52.9797366,16.7530382 52.9797366,15.3684896" id="XMLID_70_" stroke-width="0.5"></path>
                                <path d="M46.8127831,10.3841146 C46.8127831,11.4841146 48.7749956,12.3091146 50.59705,12.3091146 C52.4191045,12.3091146 53.8206848,11.4841146 53.8206848,10.3841146" id="XMLID_69_" stroke-width="0.5"></path>
                                <path d="M50.59705,5.95355903 C50.59705,6.64105903 51.9986304,7.19105903 52.9797366,7.19105903 C54.1010009,7.19105903 54.9419491,6.64105903 54.9419491,5.95355903" id="XMLID_50_" stroke-width="0.5"></path>
                                <path d="M37.5623529,67.9813368 C37.5623529,74.4887153 49.0553117,79.8884549 60.1277963,79.8884549 C71.2002809,79.8884549 80.1703951,74.6271701 80.1703951,67.9813368 C80.1703951,67.2890625 80.0302371,66.4583333 79.890079,65.766059" id="XMLID_49_" stroke-width="0.5"></path>
                                <path d="M30.510797,20.3528646 C29.4110955,21.3220486 28.7237821,22.4296875 28.4488567,23.5373264 C28.1739314,24.5065104 28.1739314,25.7526042 28.9987075,26.5833333" id="XMLID_48_" stroke-width="0.5"></path>
                                <path d="M2.80316067,96.0876736 C3.08347673,97.1953125 3.50395083,98.1644965 4.06458297,98.9952257 C4.06458297,98.9952257 6.7275856,103.841146 11.2126427,107.302517" id="XMLID_47_" stroke-width="0.5"></path>
                                <path d="M1.54173837,70.8888889 C0.700790167,74.765625 1.12126427,77.9500868 2.80316067,80.719184 C2.80316067,80.719184 4.34489903,82.9344618 6.02679543,84.3190104" id="XMLID_46_" stroke-width="0.5"></path>
                                <path d="M3.3637928,62.4431424 C2.5228446,66.0429688 2.9433187,69.0889757 4.48505707,71.4427083 L6.02679543,73.3810764" id="XMLID_45_" stroke-width="0.5"></path>
                                <path d="M8.37388134,49.5668403 C7.54595089,51.2282986 6.85600885,53.0282118 6.44204363,54.828125 C5.75210158,58.0125868 6.16606681,60.781684 7.40796248,62.8585069" id="XMLID_44_" stroke-width="0.5"></path>
                                <path d="M12.474065,42.5056424 C11.4929587,44.1671007 10.6520105,46.1054688 10.2315364,48.0438368 C9.6709043,50.812934 9.95122037,53.1666667 11.0724846,54.9665799" id="XMLID_43_" stroke-width="0.5"></path>
                                <path d="M17.5197542,35.3059896 C15.9780158,37.2443576 14.9969096,39.4596354 14.5764355,41.6749132 C14.0158033,44.0286458 14.2961194,46.1054688 15.2772256,47.6284722" id="XMLID_42_" stroke-width="0.5"></path>
                                <path d="M21.8646532,29.7677951 C20.3229148,31.5677083 19.3418086,33.5060764 18.9213345,35.5828993 C18.5008604,37.5212674 18.7811765,39.1827257 19.4819666,40.5672743" id="XMLID_41_" stroke-width="0.5"></path>
                                <path d="M26.0693942,24.7834201 C24.8079719,26.1679687 23.8268657,27.8294271 23.4063916,29.6293403 C23.1260755,31.1523437 23.2662335,32.5368924 23.8268657,33.6445312" id="XMLID_40_" stroke-width="0.5"></path>
                                <path d="M36.818328,14.6762153 C35.7186265,15.5069444 35.0313131,16.6145833 34.7563877,17.8606771 C34.4814623,18.6914063 34.618925,19.5221354 35.0313131,20.0759549" id="XMLID_39_" stroke-width="0.5"></path>
                                <path d="M43.129823,9.27647569 C42.1675842,10.1072049 41.342808,11.0763889 41.2053454,12.3224826 C41.0678827,13.0147569 41.2053454,13.5685764 41.342808,14.1223958" id="XMLID_38_" stroke-width="0.5"></path>
                                <path d="M49.0245464,4.984375 C48.1997703,5.53819444 47.6499195,6.23046875 47.5124569,7.06119792 C47.3749942,7.4765625 47.5124569,7.89192708 47.6499195,8.16883681" id="XMLID_37_" stroke-width="0.5"></path>
                                <path d="M0.8409482,84.1805556 C0.981106234,86.3958333 1.54173837,88.3342014 2.5228446,90.1341146 C2.5228446,90.1341146 4.6252151,93.0416667 7.70869183,95.5338542" id="XMLID_36_" stroke-width="0.5"></path>
                            </g>
                        </g>
                    </g>
                </g>
            </g>
        </g>
    </g>
</svg>