<svg xmlns="http://www.w3.org/2000/svg" width="128.254" height="109.932" viewBox="0 0 128.254 109.932"><g transform="translate(0.001)" fill="none" stroke-miterlimit="10"><path d="M38.827,0H9.866A9.93,9.93,0,0,0,0,9.994V99.938a9.93,9.93,0,0,0,9.865,9.994H118.388a9.931,9.931,0,0,0,9.865-9.994V28.316a9.931,9.931,0,0,0-9.865-9.994H59.194L49.922,5.634A13.741,13.741,0,0,0,38.827,0Z" stroke="none"/><path d="M 9.875953674316406 3 C 6.059288024902344 3.029853820800781 2.97576904296875 6.156715393066406 3.000137329101562 9.97454833984375 L 3.000205993652344 9.984115600585938 L 3.000205993652344 9.993705749511719 L 3.000205993652344 99.93793487548828 L 3.000205993652344 99.94752502441406 L 3.000137329101562 99.95709228515625 C 2.97576904296875 103.7749252319336 6.059288024902344 106.9017868041992 9.875953674316406 106.931640625 L 118.378044128418 106.931640625 C 122.194709777832 106.9017868041992 125.2782287597656 103.7749252319336 125.2538604736328 99.95709228515625 L 125.253791809082 99.94752502441406 L 125.253791809082 99.93793487548828 L 125.253791809082 28.31563568115234 L 125.253791809082 28.30604553222656 L 125.2538604736328 28.29647827148438 C 125.2782287597656 24.47864532470703 122.194709777832 21.35179138183594 118.378044128418 21.32193756103516 L 59.19427490234375 21.32193756103516 L 57.67092895507812 21.32193756103516 L 56.77213287353516 20.09202575683594 L 47.49979400634766 7.403999328613281 C 45.48468017578125 4.6463623046875 42.24256896972656 3 38.82715606689453 3 L 9.875953674316406 3 M 9.86566162109375 0 L 38.82715606689453 0 C 43.21257019042969 0 47.33458709716797 2.093185424804688 49.9219970703125 5.634002685546875 L 59.19427490234375 18.32193756103516 L 118.3883361816406 18.32193756103516 C 123.8721160888672 18.35774993896484 128.288818359375 22.83184051513672 128.2537994384766 28.31563568115234 L 128.2537994384766 99.93793487548828 C 128.288818359375 105.4217300415039 123.8721160888672 109.8958435058594 118.3883361816406 109.931640625 L 9.86566162109375 109.931640625 C 4.381858825683594 109.8958435058594 -0.034820556640625 105.4217300415039 0.0001983642578125 99.93793487548828 L 0.0001983642578125 9.993705749511719 C -0.034820556640625 4.509910583496094 4.381858825683594 0.035797119140625 9.86566162109375 0 Z" stroke="none" fill="#3d70b2"/></g></svg>