<?xml version="1.0" encoding="UTF-8"?>
<svg width="101px" height="56px" viewBox="0 0 101 56" version="1.1" xmlns="http://www.w3.org/2000/svg" xmlns:xlink="http://www.w3.org/1999/xlink">
    <!-- Generator: Sketch 44 (41411) - http://www.bohemiancoding.com/sketch -->
    <title>Group 3</title>
    <desc>Created with Sketch.</desc>
    <defs></defs>
    <g id="Page-2" stroke="none" stroke-width="1" fill="none" fill-rule="evenodd">
        <g id="QNT-06_Sumany-Copy" transform="translate(-446.000000, -221.000000)">
            <g id="Group-3" transform="translate(446.000000, 221.000000)">
                <g id="Group-2-Copy">
                    <rect id="Rectangle-7" fill="#D6E9F9" x="0" y="26" width="35" height="5" rx="2.5"></rect>
                    <rect id="Rectangle-7-Copy-2" fill="#D6E9F9" x="58" y="39" width="35" height="5" rx="2.5"></rect>
                    <rect id="Rectangle-7-Copy" fill="#D6E9F9" x="8" y="31" width="35" height="5" rx="2.5"></rect>
                    <rect id="Rectangle-7-Copy-3" fill="#D6E9F9" x="66" y="44" width="35" height="5" rx="2.5"></rect>
                    <g id="email" transform="translate(22.000000, 0.000000)" fill-rule="nonzero">
                        <path d="M56.8888889,18.5568627 L29.7481111,0.519701961 C28.9184444,-0.0658823529 27.8517778,-0.0658823529 27.1406667,0.519701961 L0,18.5568627 L0,18.5568627 L28.4444444,40.4591216 L56.8888889,18.5568627 L56.8888889,18.5568627 Z" id="Shape" fill="#FF7058"></path>
                        <path d="M53.3333333,40.4591216 L3.55555556,40.4591216 L3.55555556,7.07872941 C3.55555556,5.7904 4.62222222,4.73628235 5.92588889,4.73628235 L50.9628889,4.73628235 C52.2665556,4.73628235 53.3332222,5.7904 53.3332222,7.07872941 L53.3332222,40.4591216 L53.3333333,40.4591216 Z" id="Shape" fill="#F2F2F2"></path>
                        <path d="M56.8888889,18.5568627 L28.4444444,40.4591216 L0,18.5568627 L0,18.5568627 L0,53.5769569 C0,54.279702 0.355555556,54.8652863 0.829666667,55.3338196 C1.18522222,55.6851922 1.77777778,55.9194039 2.37044444,55.9194039 L54.5185556,55.9194039 C55.1111111,55.9194039 55.7037778,55.6851922 56.0593333,55.3338196 C56.5334444,54.8652863 56.889,54.279702 56.889,53.5769569 L56.889,18.5568627 L56.8888889,18.5568627 Z" id="Shape" fill="#FFD15C"></path>
                        <path d="M2.37033333,55.9195137 L54.5184444,55.9195137 C55.111,55.9195137 55.7036667,55.685302 56.0592222,55.3339294 L32.7111111,37.1796078 L24.1777778,37.1796078 L0.829666667,55.3338196 L2.37033333,55.9195137 Z" id="Shape" fill="#F8B64C"></path>
                        <g id="Group" transform="translate(8.666667, 9.882353)" fill="#CDD6E0">
                            <rect id="Rectangle-path" x="0.103666667" y="8.90872157" width="39.3481111" height="2.92814118"></rect>
                            <rect id="Rectangle-path" x="9.22966667" y="17.8101961" width="21.0963333" height="2.92814118"></rect>
                            <rect id="Rectangle-path" x="0.103666667" y="0.00735686275" width="39.3481111" height="2.92814118"></rect>
                        </g>
                    </g>
                </g>
                <g id="Group" transform="translate(41.000000, 10.000000)" fill-rule="nonzero">
                    <circle id="Oval" stroke="#F2F2F2" stroke-width="2" fill="#26B999" cx="10" cy="10" r="10"></circle>
                    <path d="M15.4758333,5.14916667 C15.0966667,4.88583333 14.5783333,4.97916667 14.3158333,5.3575 L9.6525,12.0575 L6.36166667,9.35583333 C6.00666667,9.06333333 5.48083333,9.11583333 5.18916667,9.47166667 C4.89666667,9.8275 4.94833333,10.3525 5.305,10.6441667 L9.29333333,13.9183333 C9.44333333,14.0408333 9.63,14.1075 9.82166667,14.1075 C9.85916667,14.1075 9.8975,14.105 9.93583333,14.1 C10.1658333,14.0675 10.3725,13.9416667 10.5058333,13.7508333 L15.6841667,6.31 C15.9466667,5.93166667 15.8533333,5.4125 15.4758333,5.14916667 Z" id="Shape" fill="#FFFFFF"></path>
                </g>
            </g>
        </g>
    </g>
</svg>